<?xml version="1.0" encoding="utf-8"?>
<!-- Generator: Adobe Illustrator 16.0.0, SVG Export Plug-In . SVG Version: 6.00 Build 0)  -->
<!DOCTYPE svg PUBLIC "-//W3C//DTD SVG 1.1//EN" "http://www.w3.org/Graphics/SVG/1.1/DTD/svg11.dtd">
<svg version="1.1" id="Capa_1" xmlns="http://www.w3.org/2000/svg" xmlns:xlink="http://www.w3.org/1999/xlink" x="0px" y="0px"
	 width="892px" height="824px" viewBox="-61.5 52.5 892 824" enable-background="new -61.5 52.5 892 824" xml:space="preserve">
<g>
	<path d="M187.204,367.14c60.772,0,110.216-49.442,110.216-110.215c0-60.773-49.444-110.215-110.216-110.215
		c-60.771,0-110.215,49.442-110.215,110.215C76.989,317.698,126.433,367.14,187.204,367.14z M187.204,173.162
		c46.187,0,83.764,37.577,83.764,83.763c0,46.187-37.577,83.764-83.764,83.764c-46.186,0-83.763-37.577-83.763-83.764
		C103.441,210.739,141.018,173.162,187.204,173.162z"/>
	<path d="M478.172,367.14c60.771,0,110.216-49.442,110.216-110.215c0-60.773-49.444-110.215-110.216-110.215
		s-110.215,49.442-110.215,110.215C367.957,317.698,417.4,367.14,478.172,367.14z M478.172,173.162
		c46.187,0,83.764,37.577,83.764,83.763c0,46.187-37.577,83.764-83.764,83.764c-46.186,0-83.764-37.577-83.764-83.764
		C394.408,210.739,431.986,173.162,478.172,173.162z"/>
	<path d="M621.285,515.061c2.607,3.372,6.52,5.141,10.476,5.139c2.823,0,5.67-0.9,8.078-2.76c5.78-4.467,6.845-12.772,2.379-18.553
		c-39.587-51.228-99.381-80.606-164.046-80.606c-41.521,0-81.583,12.238-115.858,35.394c-6.054,4.089-7.645,12.311-3.557,18.363
		c4.091,6.056,12.312,7.646,18.362,3.556c29.887-20.189,64.83-30.862,101.052-30.862
		C534.583,444.731,586.747,470.365,621.285,515.061z"/>
	<path d="M187.204,418.28C72.951,418.28-20,511.23-20,625.484c0,7.305,5.922,13.226,13.226,13.226s13.226-5.921,13.226-13.226
		c0-99.668,81.085-180.753,180.752-180.753c99.668,0,180.752,81.085,180.752,180.753c0,7.305,5.922,13.226,13.226,13.226
		c7.304,0,13.226-5.921,13.226-13.226C394.408,511.23,301.458,418.28,187.204,418.28z"/>
	<path d="M672.15,541.721c-70.497,0-127.849,57.352-127.849,127.85c0,70.497,57.352,127.849,127.849,127.849
		c70.498,0,127.85-57.352,127.85-127.849C800,599.072,742.648,541.721,672.15,541.721z M672.15,770.968
		c-55.912,0-101.398-45.486-101.398-101.397c0-55.912,45.486-101.398,101.398-101.398c55.911,0,101.397,45.486,101.397,101.398
		C773.548,725.481,728.062,770.968,672.15,770.968z"/>
	<path d="M716.236,656.345h-30.86v-30.86c0-7.307-5.922-13.227-13.226-13.227c-7.305,0-13.226,5.92-13.226,13.227v30.86h-30.86
		c-7.305,0-13.227,5.919-13.227,13.226c0,7.306,5.922,13.226,13.227,13.226h30.86v30.86c0,7.305,5.921,13.226,13.226,13.226
		c7.304,0,13.226-5.921,13.226-13.226v-30.86h30.86c7.304,0,13.226-5.92,13.226-13.226
		C729.462,662.264,723.54,656.345,716.236,656.345z"/>
</g>
</svg>
